<mxfile host="Electron" modified="2024-01-01T13:54:14.715Z" agent="Mozilla/5.0 (Windows NT 10.0; Win64; x64) AppleWebKit/537.36 (KHTML, like Gecko) draw.io/22.1.16 Chrome/120.0.6099.109 Electron/28.1.0 Safari/537.36" etag="pI9QtbKPux19PqLZD6WL" version="22.1.16" type="device">
  <diagram name="Page-1" id="BQfpDsX7QWSGVcAtielU">
    <mxGraphModel dx="1101" dy="744" grid="1" gridSize="10" guides="1" tooltips="1" connect="1" arrows="1" fold="1" page="1" pageScale="1" pageWidth="1169" pageHeight="827" math="0" shadow="0">
      <root>
        <mxCell id="0" />
        <mxCell id="1" parent="0" />
        <mxCell id="Qk-J4bOhWXe23E3zafYQ-1" value="CTH" style="strokeWidth=1;shadow=0;dashed=0;align=center;html=1;shape=mxgraph.mockup.containers.window;align=left;verticalAlign=top;spacingLeft=8;strokeColor2=#008cff;strokeColor3=#c4c4c4;fontColor=#666666;mainText=;fontSize=17;labelBackgroundColor=none;whiteSpace=wrap;" vertex="1" parent="1">
          <mxGeometry x="40" y="40" width="1090" height="760" as="geometry" />
        </mxCell>
        <mxCell id="Qk-J4bOhWXe23E3zafYQ-7" value="" style="shape=mxgraph.mockup.containers.marginRect;rectMarginTop=10;strokeColor=#666666;strokeWidth=1;dashed=0;rounded=1;arcSize=5;recursiveResize=0;html=1;whiteSpace=wrap;" vertex="1" parent="1">
          <mxGeometry x="585" y="600" width="545" height="200" as="geometry" />
        </mxCell>
        <mxCell id="Qk-J4bOhWXe23E3zafYQ-8" value="Actions" style="shape=rect;strokeColor=none;fillColor=#008cff;strokeWidth=1;dashed=0;rounded=1;arcSize=20;fontColor=#ffffff;fontSize=17;spacing=2;spacingTop=-2;align=left;autosize=1;spacingLeft=4;resizeWidth=0;resizeHeight=0;perimeter=none;html=1;whiteSpace=wrap;" vertex="1" parent="Qk-J4bOhWXe23E3zafYQ-7">
          <mxGeometry x="5" width="80" height="30" as="geometry" />
        </mxCell>
        <mxCell id="Qk-J4bOhWXe23E3zafYQ-27" value="" style="strokeWidth=1;shadow=0;dashed=0;align=center;html=1;shape=mxgraph.mockup.rrect;rSize=10;strokeColor=#666666;" vertex="1" parent="Qk-J4bOhWXe23E3zafYQ-7">
          <mxGeometry x="85" y="30" width="85" height="150" as="geometry" />
        </mxCell>
        <mxCell id="Qk-J4bOhWXe23E3zafYQ-28" value="Grün" style="strokeColor=inherit;fillColor=inherit;gradientColor=inherit;strokeWidth=1;shadow=0;dashed=0;align=center;html=1;shape=mxgraph.mockup.rrect;rSize=0;fontSize=17;fontColor=#666666;fontStyle=1;resizeWidth=1;whiteSpace=wrap;" vertex="1" parent="Qk-J4bOhWXe23E3zafYQ-27">
          <mxGeometry width="85" height="50" relative="1" as="geometry">
            <mxPoint y="50" as="offset" />
          </mxGeometry>
        </mxCell>
        <mxCell id="Qk-J4bOhWXe23E3zafYQ-30" value="Rot" style="strokeColor=inherit;fillColor=inherit;gradientColor=inherit;strokeWidth=1;shadow=0;dashed=0;align=center;html=1;shape=mxgraph.mockup.bottomButton;rSize=10;fontSize=17;fontColor=#666666;fontStyle=1;resizeWidth=1;whiteSpace=wrap;" vertex="1" parent="Qk-J4bOhWXe23E3zafYQ-27">
          <mxGeometry y="1" width="85" height="50" relative="1" as="geometry">
            <mxPoint y="-50" as="offset" />
          </mxGeometry>
        </mxCell>
        <mxCell id="Qk-J4bOhWXe23E3zafYQ-31" value="Gelb" style="strokeWidth=1;shadow=0;dashed=0;align=center;html=1;shape=mxgraph.mockup.topButton;rSize=10;fontSize=17;fontColor=#ffffff;fontStyle=1;fillColor=#008cff;strokeColor=#008cff;resizeWidth=1;whiteSpace=wrap;" vertex="1" parent="Qk-J4bOhWXe23E3zafYQ-27">
          <mxGeometry width="85" height="50" relative="1" as="geometry" />
        </mxCell>
        <mxCell id="Qk-J4bOhWXe23E3zafYQ-21" value="" style="strokeWidth=1;shadow=0;dashed=0;align=center;html=1;shape=mxgraph.mockup.forms.rrect;rSize=0;strokeColor=#999999;fillColor=#ffffff;" vertex="1" parent="Qk-J4bOhWXe23E3zafYQ-7">
          <mxGeometry x="290" y="20" width="245" height="160" as="geometry" />
        </mxCell>
        <mxCell id="Qk-J4bOhWXe23E3zafYQ-22" value="X&#39;s Weg" style="strokeWidth=1;shadow=0;dashed=0;align=center;html=1;shape=mxgraph.mockup.forms.rrect;rSize=0;strokeColor=#999999;fontColor=#008cff;fontSize=17;fillColor=#ffffff;resizeWidth=1;whiteSpace=wrap;" vertex="1" parent="Qk-J4bOhWXe23E3zafYQ-21">
          <mxGeometry width="245" height="30" relative="1" as="geometry">
            <mxPoint y="-1" as="offset" />
          </mxGeometry>
        </mxCell>
        <mxCell id="Qk-J4bOhWXe23E3zafYQ-23" value="Gelb" style="strokeWidth=1;shadow=0;dashed=0;align=center;html=1;shape=mxgraph.mockup.forms.anchor;fontSize=17;fontColor=#666666;align=left;spacingLeft=5;resizeWidth=1;whiteSpace=wrap;" vertex="1" parent="Qk-J4bOhWXe23E3zafYQ-21">
          <mxGeometry width="245" height="20" relative="1" as="geometry">
            <mxPoint y="30" as="offset" />
          </mxGeometry>
        </mxCell>
        <mxCell id="Qk-J4bOhWXe23E3zafYQ-24" value="Gelb: Node 232" style="strokeWidth=1;shadow=0;dashed=0;align=center;html=1;shape=mxgraph.mockup.forms.anchor;fontSize=17;fontColor=#666666;align=left;spacingLeft=5;resizeWidth=1;whiteSpace=wrap;" vertex="1" parent="Qk-J4bOhWXe23E3zafYQ-21">
          <mxGeometry width="245" height="20" relative="1" as="geometry">
            <mxPoint y="50" as="offset" />
          </mxGeometry>
        </mxCell>
        <mxCell id="Qk-J4bOhWXe23E3zafYQ-25" value="Grün" style="strokeWidth=1;shadow=0;dashed=0;align=center;html=1;shape=mxgraph.mockup.forms.rrect;rSize=0;fontSize=17;fontColor=#666666;align=left;spacingLeft=5;fillColor=#ddeeff;strokeColor=none;resizeWidth=1;whiteSpace=wrap;" vertex="1" parent="Qk-J4bOhWXe23E3zafYQ-21">
          <mxGeometry width="245" height="20" relative="1" as="geometry">
            <mxPoint y="70" as="offset" />
          </mxGeometry>
        </mxCell>
        <mxCell id="Qk-J4bOhWXe23E3zafYQ-26" value="Rot" style="strokeWidth=1;shadow=0;dashed=0;align=center;html=1;shape=mxgraph.mockup.forms.anchor;fontSize=17;fontColor=#666666;align=left;spacingLeft=5;resizeWidth=1;whiteSpace=wrap;" vertex="1" parent="Qk-J4bOhWXe23E3zafYQ-21">
          <mxGeometry width="245" height="20" relative="1" as="geometry">
            <mxPoint y="90" as="offset" />
          </mxGeometry>
        </mxCell>
        <mxCell id="Qk-J4bOhWXe23E3zafYQ-67" value="" style="strokeWidth=1;shadow=0;dashed=0;align=center;html=1;shape=mxgraph.mockup.rrect;rSize=10;strokeColor=#666666;" vertex="1" parent="Qk-J4bOhWXe23E3zafYQ-7">
          <mxGeometry x="160" y="30" width="75" height="150" as="geometry" />
        </mxCell>
        <mxCell id="Qk-J4bOhWXe23E3zafYQ-68" value="5" style="strokeColor=inherit;fillColor=inherit;gradientColor=inherit;strokeWidth=1;shadow=0;dashed=0;align=center;html=1;shape=mxgraph.mockup.rrect;rSize=0;fontSize=17;fontColor=#666666;fontStyle=1;resizeWidth=1;whiteSpace=wrap;" vertex="1" parent="Qk-J4bOhWXe23E3zafYQ-67">
          <mxGeometry width="75" height="50" relative="1" as="geometry">
            <mxPoint y="50" as="offset" />
          </mxGeometry>
        </mxCell>
        <mxCell id="Qk-J4bOhWXe23E3zafYQ-69" value="3" style="strokeColor=inherit;fillColor=inherit;gradientColor=inherit;strokeWidth=1;shadow=0;dashed=0;align=center;html=1;shape=mxgraph.mockup.bottomButton;rSize=10;fontSize=17;fontColor=#666666;fontStyle=1;resizeWidth=1;whiteSpace=wrap;" vertex="1" parent="Qk-J4bOhWXe23E3zafYQ-67">
          <mxGeometry y="1" width="75" height="50" relative="1" as="geometry">
            <mxPoint y="-50" as="offset" />
          </mxGeometry>
        </mxCell>
        <mxCell id="Qk-J4bOhWXe23E3zafYQ-70" value="7" style="strokeWidth=1;shadow=0;dashed=0;align=center;html=1;shape=mxgraph.mockup.topButton;rSize=10;fontSize=17;fontColor=#ffffff;fontStyle=1;fillColor=#008cff;strokeColor=#008cff;resizeWidth=1;whiteSpace=wrap;" vertex="1" parent="Qk-J4bOhWXe23E3zafYQ-67">
          <mxGeometry width="75" height="50" relative="1" as="geometry" />
        </mxCell>
        <mxCell id="Qk-J4bOhWXe23E3zafYQ-9" value="" style="shape=mxgraph.mockup.containers.marginRect;rectMarginTop=10;strokeColor=#666666;strokeWidth=1;dashed=0;rounded=1;arcSize=5;recursiveResize=0;html=1;whiteSpace=wrap;" vertex="1" parent="1">
          <mxGeometry x="40" y="600" width="545" height="200" as="geometry" />
        </mxCell>
        <mxCell id="Qk-J4bOhWXe23E3zafYQ-10" value="Players" style="shape=rect;strokeColor=none;fillColor=#008cff;strokeWidth=1;dashed=0;rounded=1;arcSize=20;fontColor=#ffffff;fontSize=17;spacing=2;spacingTop=-2;align=left;autosize=1;spacingLeft=4;resizeWidth=0;resizeHeight=0;perimeter=none;html=1;whiteSpace=wrap;" vertex="1" parent="Qk-J4bOhWXe23E3zafYQ-9">
          <mxGeometry x="5" width="80" height="30" as="geometry" />
        </mxCell>
        <mxCell id="Qk-J4bOhWXe23E3zafYQ-2" value="" style="verticalLabelPosition=bottom;shadow=0;dashed=0;align=center;html=1;verticalAlign=top;strokeWidth=1;shape=mxgraph.mockup.containers.userMale;strokeColor=#666666;strokeColor2=#008cff;" vertex="1" parent="Qk-J4bOhWXe23E3zafYQ-9">
          <mxGeometry x="10" y="80" width="105" height="100" as="geometry" />
        </mxCell>
        <mxCell id="Qk-J4bOhWXe23E3zafYQ-3" value="" style="verticalLabelPosition=bottom;shadow=0;dashed=0;align=center;html=1;verticalAlign=top;strokeWidth=1;shape=mxgraph.mockup.containers.userFemale;strokeColor=#666666;strokeColor2=#008cff;" vertex="1" parent="Qk-J4bOhWXe23E3zafYQ-9">
          <mxGeometry x="65" y="80" width="105" height="100" as="geometry" />
        </mxCell>
        <mxCell id="Qk-J4bOhWXe23E3zafYQ-12" value="" style="verticalLabelPosition=bottom;shadow=0;dashed=0;align=center;html=1;verticalAlign=top;strokeWidth=1;shape=mxgraph.mockup.containers.userMale;strokeColor=#666666;strokeColor2=#008cff;" vertex="1" parent="Qk-J4bOhWXe23E3zafYQ-9">
          <mxGeometry x="120" y="80" width="105" height="100" as="geometry" />
        </mxCell>
        <mxCell id="Qk-J4bOhWXe23E3zafYQ-11" value="" style="verticalLabelPosition=bottom;shadow=0;dashed=0;align=center;html=1;verticalAlign=top;strokeWidth=4;shape=mxgraph.mockup.containers.userFemale;strokeColor2=#008cff;strokeColor=#ff0000;" vertex="1" parent="Qk-J4bOhWXe23E3zafYQ-9">
          <mxGeometry x="175" y="14" width="105" height="100" as="geometry" />
        </mxCell>
        <mxCell id="Qk-J4bOhWXe23E3zafYQ-13" value="" style="verticalLabelPosition=bottom;shadow=0;dashed=0;align=center;html=1;verticalAlign=top;strokeWidth=1;shape=mxgraph.mockup.containers.userMale;strokeColor=#666666;strokeColor2=#008cff;" vertex="1" parent="Qk-J4bOhWXe23E3zafYQ-9">
          <mxGeometry x="225" y="80" width="105" height="100" as="geometry" />
        </mxCell>
        <mxCell id="Qk-J4bOhWXe23E3zafYQ-47" value="" style="verticalLabelPosition=top;shadow=0;dashed=0;align=center;html=1;verticalAlign=bottom;strokeWidth=1;shape=mxgraph.mockup.misc.pin;fillColor2=#dd0000;fillColor3=#440000;strokeColor=#660000;" vertex="1" parent="Qk-J4bOhWXe23E3zafYQ-9">
          <mxGeometry x="230" y="90" width="20" height="50" as="geometry" />
        </mxCell>
        <mxCell id="Qk-J4bOhWXe23E3zafYQ-48" value="" style="verticalLabelPosition=top;shadow=0;dashed=0;align=center;html=1;verticalAlign=bottom;strokeWidth=1;shape=mxgraph.mockup.misc.pin;fillColor2=#ffff00;fillColor3=#888800;strokeColor=#999900;" vertex="1" parent="Qk-J4bOhWXe23E3zafYQ-9">
          <mxGeometry x="70" y="90" width="20" height="50" as="geometry" />
        </mxCell>
        <mxCell id="Qk-J4bOhWXe23E3zafYQ-49" value="" style="verticalLabelPosition=top;shadow=0;dashed=0;align=center;html=1;verticalAlign=bottom;strokeWidth=1;shape=mxgraph.mockup.misc.pin;fillColor2=#ccccff;fillColor3=#0000ff;strokeColor=#000066;" vertex="1" parent="Qk-J4bOhWXe23E3zafYQ-9">
          <mxGeometry x="10" y="90" width="20" height="50" as="geometry" />
        </mxCell>
        <mxCell id="Qk-J4bOhWXe23E3zafYQ-72" value="" style="ellipse;whiteSpace=wrap;html=1;aspect=fixed;strokeWidth=2;shadow=0;fillColor=#96b677;fontColor=#ffffff;strokeColor=none;" vertex="1" parent="Qk-J4bOhWXe23E3zafYQ-9">
          <mxGeometry x="170" y="5" width="40" height="40" as="geometry" />
        </mxCell>
        <mxCell id="Qk-J4bOhWXe23E3zafYQ-46" value="" style="verticalLabelPosition=top;shadow=0;dashed=0;align=center;html=1;verticalAlign=bottom;strokeWidth=1;shape=mxgraph.mockup.misc.pin;fillColor2=#00dd00;fillColor3=#004400;strokeColor=#006600;" vertex="1" parent="Qk-J4bOhWXe23E3zafYQ-9">
          <mxGeometry x="180" y="14" width="20" height="50" as="geometry" />
        </mxCell>
        <mxCell id="Qk-J4bOhWXe23E3zafYQ-32" value="241" style="rounded=0;whiteSpace=wrap;html=1;fontSize=16;" vertex="1" parent="1">
          <mxGeometry x="200" y="210" width="80" height="40" as="geometry" />
        </mxCell>
        <mxCell id="Qk-J4bOhWXe23E3zafYQ-33" value="247" style="rounded=0;whiteSpace=wrap;html=1;fontSize=16;" vertex="1" parent="1">
          <mxGeometry x="410" y="280" width="80" height="40" as="geometry" />
        </mxCell>
        <mxCell id="Qk-J4bOhWXe23E3zafYQ-34" value="200" style="rounded=0;whiteSpace=wrap;html=1;fontSize=16;" vertex="1" parent="1">
          <mxGeometry x="640" y="170" width="80" height="40" as="geometry" />
        </mxCell>
        <mxCell id="Qk-J4bOhWXe23E3zafYQ-35" value="222" style="rounded=0;whiteSpace=wrap;html=1;fontSize=16;" vertex="1" parent="1">
          <mxGeometry x="150" y="430" width="80" height="40" as="geometry" />
        </mxCell>
        <mxCell id="Qk-J4bOhWXe23E3zafYQ-36" value="198" style="rounded=0;whiteSpace=wrap;html=1;fontSize=16;" vertex="1" parent="1">
          <mxGeometry x="640" y="430" width="80" height="40" as="geometry" />
        </mxCell>
        <mxCell id="Qk-J4bOhWXe23E3zafYQ-37" value="211" style="rounded=0;whiteSpace=wrap;html=1;fontSize=16;" vertex="1" parent="1">
          <mxGeometry x="817.5" y="280" width="80" height="40" as="geometry" />
        </mxCell>
        <mxCell id="Qk-J4bOhWXe23E3zafYQ-38" value="232" style="rounded=0;whiteSpace=wrap;html=1;fontSize=16;" vertex="1" parent="1">
          <mxGeometry x="920" y="120" width="80" height="40" as="geometry" />
        </mxCell>
        <mxCell id="Qk-J4bOhWXe23E3zafYQ-42" value="" style="verticalLabelPosition=top;shadow=0;dashed=0;align=center;html=1;verticalAlign=bottom;strokeWidth=1;shape=mxgraph.mockup.misc.pin;fillColor2=#ccccff;fillColor3=#0000ff;strokeColor=#000066;" vertex="1" parent="1">
          <mxGeometry x="700" y="150" width="20" height="50" as="geometry" />
        </mxCell>
        <mxCell id="Qk-J4bOhWXe23E3zafYQ-43" value="" style="verticalLabelPosition=top;shadow=0;dashed=0;align=center;html=1;verticalAlign=bottom;strokeWidth=1;shape=mxgraph.mockup.misc.pin;fillColor2=#ffff00;fillColor3=#888800;strokeColor=#999900;" vertex="1" parent="1">
          <mxGeometry x="470" y="240" width="20" height="50" as="geometry" />
        </mxCell>
        <mxCell id="Qk-J4bOhWXe23E3zafYQ-44" value="" style="verticalLabelPosition=top;shadow=0;dashed=0;align=center;html=1;verticalAlign=bottom;strokeWidth=1;shape=mxgraph.mockup.misc.pin;fillColor2=#dd0000;fillColor3=#440000;strokeColor=#660000;" vertex="1" parent="1">
          <mxGeometry x="200" y="395" width="20" height="50" as="geometry" />
        </mxCell>
        <mxCell id="Qk-J4bOhWXe23E3zafYQ-51" value="" style="endArrow=none;html=1;rounded=0;fontColor=#fbf30e;fillColor=#e3c800;strokeColor=#B09500;strokeWidth=4;entryX=0;entryY=0.5;entryDx=0;entryDy=0;" edge="1" parent="1" target="Qk-J4bOhWXe23E3zafYQ-34">
          <mxGeometry width="50" height="50" relative="1" as="geometry">
            <mxPoint x="490" y="300" as="sourcePoint" />
            <mxPoint x="540" y="250" as="targetPoint" />
          </mxGeometry>
        </mxCell>
        <mxCell id="Qk-J4bOhWXe23E3zafYQ-52" value="" style="endArrow=none;html=1;rounded=0;fontColor=#fbf30e;fillColor=#e3c800;strokeColor=#B09500;strokeWidth=4;entryX=0.5;entryY=1;entryDx=0;entryDy=0;exitX=0;exitY=0.5;exitDx=0;exitDy=0;" edge="1" parent="1" source="Qk-J4bOhWXe23E3zafYQ-36" target="Qk-J4bOhWXe23E3zafYQ-33">
          <mxGeometry width="50" height="50" relative="1" as="geometry">
            <mxPoint x="510" y="470" as="sourcePoint" />
            <mxPoint x="560" y="420" as="targetPoint" />
          </mxGeometry>
        </mxCell>
        <mxCell id="Qk-J4bOhWXe23E3zafYQ-53" value="" style="endArrow=none;html=1;rounded=0;fontColor=#fbf30e;fillColor=#e3c800;strokeColor=#B09500;strokeWidth=4;entryX=0.5;entryY=0;entryDx=0;entryDy=0;exitX=0;exitY=0.5;exitDx=0;exitDy=0;" edge="1" parent="1" source="Qk-J4bOhWXe23E3zafYQ-37" target="Qk-J4bOhWXe23E3zafYQ-36">
          <mxGeometry width="50" height="50" relative="1" as="geometry">
            <mxPoint x="510" y="470" as="sourcePoint" />
            <mxPoint x="560" y="420" as="targetPoint" />
          </mxGeometry>
        </mxCell>
        <mxCell id="Qk-J4bOhWXe23E3zafYQ-54" value="" style="endArrow=none;html=1;rounded=0;fontColor=#fbf30e;fillColor=#e3c800;strokeColor=#B09500;strokeWidth=4;exitX=0.5;exitY=1;exitDx=0;exitDy=0;" edge="1" parent="1" source="Qk-J4bOhWXe23E3zafYQ-34">
          <mxGeometry width="50" height="50" relative="1" as="geometry">
            <mxPoint x="510" y="470" as="sourcePoint" />
            <mxPoint x="680" y="430" as="targetPoint" />
          </mxGeometry>
        </mxCell>
        <mxCell id="Qk-J4bOhWXe23E3zafYQ-55" value="" style="endArrow=none;html=1;rounded=0;fontColor=#fbf30e;fillColor=#e3c800;strokeColor=#B09500;strokeWidth=4;entryX=0.5;entryY=0;entryDx=0;entryDy=0;exitX=0.5;exitY=1;exitDx=0;exitDy=0;" edge="1" parent="1" source="Qk-J4bOhWXe23E3zafYQ-38" target="Qk-J4bOhWXe23E3zafYQ-37">
          <mxGeometry width="50" height="50" relative="1" as="geometry">
            <mxPoint x="520" y="480" as="sourcePoint" />
            <mxPoint x="570" y="430" as="targetPoint" />
          </mxGeometry>
        </mxCell>
        <mxCell id="Qk-J4bOhWXe23E3zafYQ-56" value="" style="endArrow=none;html=1;rounded=0;fontColor=#fbf30e;fillColor=#e3c800;strokeColor=#B09500;strokeWidth=4;exitX=1;exitY=0.5;exitDx=0;exitDy=0;" edge="1" parent="1" source="Qk-J4bOhWXe23E3zafYQ-34">
          <mxGeometry width="50" height="50" relative="1" as="geometry">
            <mxPoint x="970" y="170" as="sourcePoint" />
            <mxPoint x="860" y="280" as="targetPoint" />
          </mxGeometry>
        </mxCell>
        <mxCell id="Qk-J4bOhWXe23E3zafYQ-57" value="" style="endArrow=none;html=1;rounded=0;fontColor=#fbf30e;fillColor=#e3c800;strokeColor=#B09500;strokeWidth=4;entryX=1;entryY=0.5;entryDx=0;entryDy=0;exitX=0;exitY=0.5;exitDx=0;exitDy=0;" edge="1" parent="1" source="Qk-J4bOhWXe23E3zafYQ-38" target="Qk-J4bOhWXe23E3zafYQ-34">
          <mxGeometry width="50" height="50" relative="1" as="geometry">
            <mxPoint x="980" y="180" as="sourcePoint" />
            <mxPoint x="877" y="300" as="targetPoint" />
          </mxGeometry>
        </mxCell>
        <mxCell id="Qk-J4bOhWXe23E3zafYQ-58" value="" style="endArrow=none;html=1;rounded=0;fontColor=#fbf30e;fillColor=#e3c800;strokeColor=#B09500;strokeWidth=4;entryX=1;entryY=0.5;entryDx=0;entryDy=0;exitX=0;exitY=0.5;exitDx=0;exitDy=0;" edge="1" parent="1" source="Qk-J4bOhWXe23E3zafYQ-36" target="Qk-J4bOhWXe23E3zafYQ-35">
          <mxGeometry width="50" height="50" relative="1" as="geometry">
            <mxPoint x="510" y="470" as="sourcePoint" />
            <mxPoint x="560" y="420" as="targetPoint" />
          </mxGeometry>
        </mxCell>
        <mxCell id="Qk-J4bOhWXe23E3zafYQ-59" value="" style="endArrow=none;html=1;rounded=0;fontColor=#fbf30e;fillColor=#e3c800;strokeColor=#B09500;strokeWidth=4;entryX=0.5;entryY=1;entryDx=0;entryDy=0;exitX=0.5;exitY=0;exitDx=0;exitDy=0;" edge="1" parent="1" source="Qk-J4bOhWXe23E3zafYQ-35" target="Qk-J4bOhWXe23E3zafYQ-33">
          <mxGeometry width="50" height="50" relative="1" as="geometry">
            <mxPoint x="520" y="480" as="sourcePoint" />
            <mxPoint x="570" y="430" as="targetPoint" />
          </mxGeometry>
        </mxCell>
        <mxCell id="Qk-J4bOhWXe23E3zafYQ-60" value="" style="endArrow=none;html=1;rounded=0;fontColor=#fbf30e;fillColor=#e3c800;strokeColor=#B09500;strokeWidth=4;entryX=0.5;entryY=1;entryDx=0;entryDy=0;exitX=0;exitY=0.5;exitDx=0;exitDy=0;" edge="1" parent="1" source="Qk-J4bOhWXe23E3zafYQ-33" target="Qk-J4bOhWXe23E3zafYQ-32">
          <mxGeometry width="50" height="50" relative="1" as="geometry">
            <mxPoint x="530" y="490" as="sourcePoint" />
            <mxPoint x="580" y="440" as="targetPoint" />
          </mxGeometry>
        </mxCell>
        <mxCell id="Qk-J4bOhWXe23E3zafYQ-61" value="" style="endArrow=none;html=1;rounded=0;fontColor=#fbf30e;fillColor=#e3c800;strokeColor=#B09500;strokeWidth=4;entryX=0.5;entryY=1;entryDx=0;entryDy=0;exitX=0.5;exitY=0;exitDx=0;exitDy=0;" edge="1" parent="1" source="Qk-J4bOhWXe23E3zafYQ-35" target="Qk-J4bOhWXe23E3zafYQ-32">
          <mxGeometry width="50" height="50" relative="1" as="geometry">
            <mxPoint x="540" y="500" as="sourcePoint" />
            <mxPoint x="590" y="450" as="targetPoint" />
          </mxGeometry>
        </mxCell>
        <mxCell id="Qk-J4bOhWXe23E3zafYQ-62" value="" style="endArrow=none;html=1;rounded=0;fontColor=#fbf30e;fillColor=#e51400;strokeColor=#B20000;strokeWidth=4;entryX=1;entryY=0.25;entryDx=0;entryDy=0;exitX=0;exitY=0.75;exitDx=0;exitDy=0;" edge="1" parent="1" source="Qk-J4bOhWXe23E3zafYQ-38" target="Qk-J4bOhWXe23E3zafYQ-35">
          <mxGeometry width="50" height="50" relative="1" as="geometry">
            <mxPoint x="640" y="460" as="sourcePoint" />
            <mxPoint x="240" y="460" as="targetPoint" />
            <Array as="points">
              <mxPoint x="570" y="320" />
            </Array>
          </mxGeometry>
        </mxCell>
        <mxCell id="Qk-J4bOhWXe23E3zafYQ-63" value="" style="endArrow=none;html=1;rounded=0;fontColor=#fbf30e;fillColor=#e51400;strokeColor=#B20000;strokeWidth=4;entryX=1;entryY=0.5;entryDx=0;entryDy=0;exitX=0.75;exitY=1;exitDx=0;exitDy=0;" edge="1" parent="1" source="Qk-J4bOhWXe23E3zafYQ-38" target="Qk-J4bOhWXe23E3zafYQ-36">
          <mxGeometry width="50" height="50" relative="1" as="geometry">
            <mxPoint x="930" y="160" as="sourcePoint" />
            <mxPoint x="240" y="450" as="targetPoint" />
            <Array as="points">
              <mxPoint x="970" y="380" />
            </Array>
          </mxGeometry>
        </mxCell>
        <mxCell id="Qk-J4bOhWXe23E3zafYQ-65" value="" style="endArrow=none;html=1;rounded=0;fontColor=#fbf30e;fillColor=#60a917;strokeColor=#2D7600;strokeWidth=4;entryX=0;entryY=0.5;entryDx=0;entryDy=0;exitX=1;exitY=0.5;exitDx=0;exitDy=0;" edge="1" parent="1" source="Qk-J4bOhWXe23E3zafYQ-32" target="Qk-J4bOhWXe23E3zafYQ-34">
          <mxGeometry width="50" height="50" relative="1" as="geometry">
            <mxPoint x="375" y="210" as="sourcePoint" />
            <mxPoint x="525" y="100" as="targetPoint" />
          </mxGeometry>
        </mxCell>
        <mxCell id="Qk-J4bOhWXe23E3zafYQ-66" value="" style="endArrow=none;html=1;rounded=0;fontColor=#fbf30e;fillColor=#60a917;strokeColor=#2D7600;strokeWidth=4;entryX=0.25;entryY=1;entryDx=0;entryDy=0;exitX=1;exitY=0;exitDx=0;exitDy=0;" edge="1" parent="1" source="Qk-J4bOhWXe23E3zafYQ-35" target="Qk-J4bOhWXe23E3zafYQ-34">
          <mxGeometry width="50" height="50" relative="1" as="geometry">
            <mxPoint x="290" y="240" as="sourcePoint" />
            <mxPoint x="650" y="200" as="targetPoint" />
            <Array as="points">
              <mxPoint x="510" y="320" />
            </Array>
          </mxGeometry>
        </mxCell>
        <mxCell id="Qk-J4bOhWXe23E3zafYQ-71" value="" style="ellipse;whiteSpace=wrap;html=1;aspect=fixed;strokeWidth=2;shadow=0;fillColor=#96b677;fontColor=#ffffff;strokeColor=none;" vertex="1" parent="1">
          <mxGeometry x="867.5" y="250" width="40" height="40" as="geometry" />
        </mxCell>
        <mxCell id="Qk-J4bOhWXe23E3zafYQ-45" value="" style="verticalLabelPosition=top;shadow=1;dashed=0;align=center;html=1;verticalAlign=bottom;strokeWidth=1;shape=mxgraph.mockup.misc.pin;fillColor2=#00dd00;fillColor3=#004400;strokeColor=#006600;" vertex="1" parent="1">
          <mxGeometry x="877.5" y="260" width="20" height="50" as="geometry" />
        </mxCell>
      </root>
    </mxGraphModel>
  </diagram>
</mxfile>
